<?xml version="1.0" standalone="no"?><svg xmlns="http://www.w3.org/2000/svg" viewBox="0 0 1440 320"><path fill="#ffffff" fill-opacity="1" d="M0,192L30,186.7C60,181,120,171,180,176C240,181,300,203,360,208C420,213,480,203,540,176C600,149,660,107,720,117.3C780,128,840,192,900,229.3C960,267,1020,277,1080,261.3C1140,245,1200,203,1260,176C1320,149,1380,139,1410,133.3L1440,128L1440,320L1410,320C1380,320,1320,320,1260,320C1200,320,1140,320,1080,320C1020,320,960,320,900,320C840,320,780,320,720,320C660,320,600,320,540,320C480,320,420,320,360,320C300,320,240,320,180,320C120,320,60,320,30,320L0,320Z"></path></svg>